Coordinates
version=1
nRows=8
nColumns=34
inDegrees=yes

Units are S.I. units (second, meters, Newtons, ...)
If the header above contains a line with 'inDegrees', this indicates whether rotational values are in degrees (yes) or radians (no).

endheader
time	pelvis_tilt	pelvis_list	pelvis_rotation	pelvis_tx	pelvis_ty	pelvis_tz	hip_flexion_r	hip_adduction_r	hip_rotation_r	knee_angle_r	ankle_angle_r	subtalar_angle_r	mtp_angle_r	hip_flexion_l	hip_adduction_l	hip_rotation_l	knee_angle_l	ankle_angle_l	subtalar_angle_l	mtp_angle_l	lumbar_extension	lumbar_bending	lumbar_rotation	arm_flex_r	arm_add_r	arm_rot_r	elbow_flex_r	pro_sup_r	arm_flex_l	arm_add_l	arm_rot_l	elbow_flex_l	pro_sup_l
      5.48333330	    -15.07201120	     -8.41603792	     13.05503848	      3.65905539	      0.92432626	     -0.08365685	      2.86300559	      8.60600577	    -18.17543265	      3.06417719	     26.34699729	      1.54459083	      0.00000000	     -5.80643657	    -15.58734761	     -2.58374071	      9.97171962	     -7.20453902	     -4.23191062	      0.00000000	     19.72124712	      3.63922895	    -45.83268223	     17.57029451	     -1.53770682	     19.05646707	      1.79992547	    116.25362674	    -39.88015485	     16.71529437	    -48.10935674	     52.95343761	    111.05869002
      5.50000000	    -15.18066142	     -6.05171088	     11.74734221	      3.66050131	      0.92477416	     -0.07931552	      1.85925415	      6.64470868	    -17.94102730	      2.03638393	     26.94520489	      4.08773267	      0.00000000	     -4.82375822	    -13.18572069	     -1.95477248	     12.88508914	     -8.43734841	     -5.51206298	      0.00000000	     18.00942122	      1.95464866	    -39.43881257	     11.07021770	     -6.33218516	     24.91994974	     22.87212092	    112.40297739	    -39.60279054	     14.26256224	    -45.44556249	     53.17561312	    108.79904342
      5.51666670	    -15.10297284	     -3.90413119	     10.68576338	      3.66976146	      0.92358438	     -0.07660539	      0.63862785	      4.89291701	    -17.77323258	      0.96624030	     27.32372560	      6.25391419	      0.00000000	     -3.68401978	    -10.88552417	     -1.23665636	     15.91725386	     -9.17765160	     -7.63306461	      0.00000000	     17.41127708	      0.25618013	    -36.62641340	     10.78874012	     -6.45665515	     25.80093726	     25.84178241	    108.77734872	    -39.24105481	     13.34930758	    -45.63583690	     50.43284025	    108.56530573
      5.53333330	    -14.98169712	     -1.81816081	      9.63809602	      3.68263173	      0.93011114	     -0.07090413	     -0.57460060	      3.18610801	    -16.92782183	      0.00000000	     27.03802757	      7.23069982	      0.00000000	     -2.59632786	     -8.73362166	     -1.41473805	     18.58176776	     -8.50554604	     -7.89739653	      0.00000000	     17.03061163	     -1.70373326	    -34.81673457	     11.28003159	     -5.63863047	     25.95587084	     26.33763090	    108.54794372	    -39.75329473	     13.24661058	    -45.72926359	     49.93716893	    108.51744310
      5.55000000	    -14.90501587	      0.23292088	      8.82897907	      3.69321709	      0.93075802	     -0.06813616	     -1.58537909	      1.21029366	    -18.04275359	      0.00000000	     27.89517573	     10.35676200	      0.00000000	     -1.42271896	     -6.53754402	     -1.84140844	     20.81389158	     -8.73645154	     -8.56124726	      0.00000000	     16.79558196	     -3.31288903	    -31.01045220	      9.51689519	     -6.68727533	     25.25104046	     31.33633139	    105.33147846	    -39.03019537	     11.69865290	    -45.30712168	     47.46905414	    107.91590569
      5.56666670	    -15.24730592	      1.77825594	      8.06525116	      3.70131895	      0.93328373	     -0.06462564	     -2.04704372	     -0.29013417	    -17.79193512	      0.00000000	     27.39043804	     10.00186734	      0.00000000	     -0.50811107	     -4.85727388	     -2.94284268	     22.00164563	     -8.38555697	     -8.39440410	      0.00000000	     17.15627648	     -4.69619451	    -27.73352663	      7.67261952	     -7.18322832	     22.96688536	     34.78402524	    101.43034644	    -39.09976166	     10.66124623	    -44.14750972	     47.30985082	    106.92023137
      5.58333330	    -15.50926269	      3.15703242	      7.54491587	      3.69955519	      0.93538536	     -0.06191118	     -2.51567708	     -1.72995571	    -18.31647303	      0.00000000	     26.88894686	      9.87113918	      0.00000000	      0.64265441	     -3.18021313	     -3.66911243	     21.99192367	     -7.96693957	     -8.63118534	      0.00000000	     17.46881746	     -6.07451394	    -26.91628289	      7.95636925	     -6.79995727	     22.96264782	     35.02668465	    101.32334478	    -39.47629379	     10.75278812	    -44.12950080	     46.86486168	    106.86032822
      5.60000000	    -15.65881990	      3.95579668	      7.27836362	      3.70553052	      0.93603574	     -0.06078812	     -2.65670689	     -2.54218230	    -18.46913154	      0.00000000	     26.67592083	      9.72362069	      0.00000000	      1.37795052	     -2.07528141	     -3.78730098	     21.14222002	     -6.13296164	     -8.99673867	      0.00000000	     17.57987274	     -6.85202679	    -26.23613763	      8.10440132	     -6.70731740	     22.92438699	     35.16408141	    101.23642467	    -39.53598681	     10.83080860	    -44.09818047	     46.58196243	    106.79911394
